<svg width="167" height="32" viewBox="0 0 167 32" fill="none" xmlns="http://www.w3.org/2000/svg">
<path fill-rule="evenodd" clip-rule="evenodd" d="M106.088 23.2519C98.6616 17.7871 97.5025 18.2234 82.8357 32C96.6123 17.3332 97.0486 16.1785 91.5838 8.74811C99.0097 14.2129 100.169 13.7766 114.836 0C101.059 14.6668 100.623 15.8215 106.088 23.2519ZM161.692 23.1682C160.872 23.1682 160.242 22.9434 159.801 22.4939C159.361 22.0444 159.14 21.4274 159.14 20.6473V10.8591H154.83V8.83627H159.14V3.73724H161.454V8.83627H166.143V10.8591H161.454V20.2991C161.454 20.8853 161.736 21.1806 162.305 21.1806H165.5V23.1726H161.688L161.692 23.1682ZM27.4695 5.39438L27.4695 21.7183H30.4883L30.4883 5.39438L27.4695 5.39438ZM58.8215 21.3876V18.2542L63.2594 16.5707L58.8215 14.8872V11.7537L67.4682 14.9753H67.4903V18.1969H67.4682L58.8215 21.4009V21.392V21.3876ZM55.1063 7.32016L50.0205 23.6441H53.0394L58.1252 7.32016L55.1063 7.32016ZM8.67318 14.874V11.7406L0.0176288 14.9577H0L0 18.1749H0.0176288L8.67318 21.3965V18.2587L4.23523 16.5663L8.67318 14.8784V14.874ZM24.2834 14.7638C24.3318 13.4901 23.8823 12.2429 23.0229 11.2998L23.0273 11.3042C22.1635 10.4052 20.9604 9.91598 19.7132 9.96887C18.3778 9.91158 17.0822 10.4052 16.1214 11.3395L16.1214 10.3082H13.1025L13.1025 21.7226H16.1214V16.6677C16.1214 14.041 17.0645 12.7321 18.9552 12.7321C19.5986 12.7057 20.2156 12.9745 20.6343 13.4637C21.075 14.0102 21.2998 14.7065 21.2645 15.4072V21.7182H24.2834V14.7638ZM44.0539 21.7182H46.566L50.8012 10.2818L47.5752 10.2818L45.1998 17.1436L42.7494 10.2818H40.396L37.9457 17.1216L35.5702 10.2818H32.3442L36.5751 21.7182H39.0915L41.5859 14.9974L44.0539 21.7182ZM81.8178 23.578C80.3723 23.578 79.103 23.2695 78.0057 22.6525C76.9127 22.0355 76.0621 21.1718 75.4539 20.0568C74.8502 18.9418 74.5461 17.6549 74.5461 16.1873V15.8347C74.5461 14.3495 74.8502 13.0495 75.4539 11.9345C76.0577 10.8195 76.8995 9.95566 77.9748 9.33867C79.0501 8.72167 80.2797 8.41317 81.668 8.41317C83.0562 8.41317 84.2065 8.69965 85.2421 9.27698C86.2778 9.85431 87.0887 10.6784 87.6749 11.7538C88.261 12.8291 88.5563 14.0895 88.5563 15.5351V16.5884L76.8598 16.5884C76.9171 18.1308 77.4151 19.3384 78.3538 20.2066C79.2925 21.0748 80.4648 21.5111 81.8707 21.5111C83.1003 21.5111 84.0478 21.229 84.7133 20.6605C85.3788 20.092 85.8856 19.4177 86.2381 18.6377L88.2301 19.6028C87.9349 20.2066 87.5294 20.8148 87.0138 21.4185C86.4938 22.0223 85.8239 22.5335 84.9909 22.9434C84.158 23.3533 83.1003 23.5604 81.809 23.5604L81.8178 23.578ZM76.8951 14.6977L86.2161 14.6977C86.1368 13.3712 85.6828 12.3355 84.8543 11.5907C84.0214 10.8503 82.9637 10.4757 81.6724 10.4757C80.3811 10.4757 79.2881 10.8459 78.4464 11.5907C77.6046 12.3355 77.089 13.3712 76.8907 14.6977H76.8951ZM110.133 8.83641V29.0298L110.138 29.0342H112.451V20.9163H112.861C113.095 21.3482 113.425 21.7669 113.857 22.1767C114.289 22.5866 114.849 22.9215 115.545 23.1859C116.237 23.4504 117.083 23.5826 118.079 23.5826C119.331 23.5826 120.472 23.2873 121.495 22.7012C122.517 22.115 123.337 21.2644 123.941 20.1494C124.544 19.0344 124.849 17.7167 124.849 16.1919V15.8129C124.849 14.2704 124.54 12.9482 123.923 11.8553C123.306 10.7623 122.486 9.91614 121.459 9.32118C120.433 8.72622 119.304 8.42654 118.075 8.42654C116.59 8.42654 115.431 8.70861 114.602 9.27712C113.769 9.84564 113.17 10.4891 112.8 11.2118H112.39V8.83641H110.133ZM121.08 20.101C120.155 21.0529 118.947 21.5245 117.462 21.5245C115.999 21.5245 114.792 21.0485 113.844 20.101C112.896 19.1534 112.421 17.8313 112.421 16.1302V15.8657C112.421 14.1646 112.896 12.8425 113.844 11.8949C114.792 10.9474 115.977 10.4714 117.462 10.4714C118.947 10.4714 120.151 10.9474 121.08 11.8949C122.01 12.8425 122.473 14.1646 122.473 15.8657V16.1302C122.473 17.8313 122.006 19.1534 121.08 20.101ZM134.897 23.578C133.452 23.578 132.182 23.2695 131.085 22.6525C129.992 22.0355 129.141 21.1718 128.533 20.0568C127.93 18.9418 127.625 17.6549 127.625 16.1873V15.8347C127.625 14.3495 127.93 13.0495 128.533 11.9345C129.137 10.8195 129.979 9.95566 131.054 9.33867C132.129 8.72167 133.359 8.41317 134.747 8.41317C136.136 8.41317 137.286 8.69965 138.321 9.27698C139.357 9.85431 140.168 10.6784 140.754 11.7538C141.34 12.8291 141.636 14.0895 141.636 15.5351V16.5884H129.939C129.996 18.1308 130.494 19.3384 131.433 20.2066C132.372 21.0748 133.544 21.5111 134.95 21.5111C136.18 21.5111 137.127 21.229 137.793 20.6605C138.458 20.092 138.965 19.4177 139.317 18.6377L141.309 19.6028C141.014 20.2066 140.609 20.8148 140.093 21.4185C139.573 22.0223 138.903 22.5335 138.07 22.9434C137.237 23.3533 136.18 23.5604 134.888 23.5604L134.897 23.578ZM129.974 14.6977L139.295 14.6977C139.216 13.3712 138.762 12.3355 137.934 11.5907C137.101 10.8503 136.043 10.4757 134.752 10.4757C133.46 10.4757 132.367 10.8459 131.526 11.5907C130.684 12.3355 130.168 13.3712 129.97 14.6977H129.974ZM145.046 8.83639V23.1683H147.36V14.4334C147.36 13.2215 147.677 12.3268 148.312 11.7495C148.947 11.1722 149.784 10.8857 150.82 10.8857H152.666V8.77469H150.965C150.106 8.77469 149.414 8.92012 148.885 9.2154C148.356 9.51067 147.968 9.96901 147.713 10.5948H147.303V8.83639H145.046Z" fill="#F1F1F1"/>
</svg>
